<svg width="421" height="153" viewBox="0 0 421 153" fill="none" xmlns="http://www.w3.org/2000/svg">
<path fill-rule="evenodd" clip-rule="evenodd" d="M0.00821121 74.563L0 74.5465L0.0164224 74.5383L0.00821121 74.563Z" fill="#EAEAEA"/>
<path fill-rule="evenodd" clip-rule="evenodd" d="M95.5024 79.1055L88.0599 129.119L34.5872 152.764L42.0297 102.733L42.0463 102.741L95.5024 79.1055Z" fill="#EAEAEA"/>
<path fill-rule="evenodd" clip-rule="evenodd" d="M60.9235 0.880005L53.481 50.9106L53.4726 50.9023L0.0166016 74.5383L7.45911 24.5243L60.9235 0.880005Z" fill="#EAEAEA"/>
<path fill-rule="evenodd" clip-rule="evenodd" d="M95.5024 79.0805V79.1055L42.0464 102.742L42.0297 102.733L42.038 102.717L0.00830078 74.5634L0.0166368 74.5384L53.4727 50.9023L53.481 50.9107V50.9273L95.5024 79.0805Z" fill="white"/>
<path fill-rule="evenodd" clip-rule="evenodd" d="M95.5189 79.0969L95.5024 79.1051V79.0804L95.5189 79.0969Z" fill="white"/>
<path fill-rule="evenodd" clip-rule="evenodd" d="M74.359 58.3204L74.3501 58.3115H74.359V58.3204Z" fill="#EAEAEA"/>
<path fill-rule="evenodd" clip-rule="evenodd" d="M133.523 61.1368L128.914 92.1237L95.7856 106.775L100.394 75.7718L100.403 75.7802L133.523 61.1368Z" fill="#EAEAEA"/>
<path fill-rule="evenodd" clip-rule="evenodd" d="M112.104 12.6647L107.487 43.6682L107.479 43.6598L74.3584 58.3115L78.9673 27.3163L112.104 12.6647Z" fill="#EAEAEA"/>
<path fill-rule="evenodd" clip-rule="evenodd" d="M133.532 61.1201L133.523 61.1368L100.403 75.7801L100.395 75.7717V75.7634L74.3584 58.3198V58.3115L107.479 43.6598L107.487 43.6681V43.6765L133.532 61.1201Z" fill="white"/>
<path fill-rule="evenodd" clip-rule="evenodd" d="M133.54 61.1285L133.523 61.1368L133.532 61.1201L133.54 61.1285Z" fill="white"/>
<path d="M181.07 21.7099C179.57 19.2199 175.47 16.8499 170.73 16.8499C164.63 16.8499 161.7 19.4 161.7 22.64C161.7 26.44 166.18 27.4999 171.42 28.1199C180.51 29.2399 188.98 31.6099 188.98 42.0099C188.98 51.7299 180.38 55.8999 170.67 55.8999C161.76 55.8999 154.91 53.1599 151.67 45.1899L158.52 41.64C160.45 46.44 165.49 48.5499 170.79 48.5499C176.09 48.5499 180.82 46.7399 180.82 42.0099C180.82 37.8999 176.52 36.2199 170.73 35.5999C161.82 34.5399 153.6 32.17 153.6 22.39C153.6 13.42 162.45 9.74994 170.48 9.68994C177.27 9.68994 184.31 11.6199 187.61 18.3499L181.07 21.7099Z" fill="white"/>
<path d="M233.33 23.21L219.13 42.15H217.51L203.62 23.15V54.86H195.4V11.26H204.87L218.51 30.01L232.15 11.26H241.56V54.86H233.34V23.22L233.33 23.21Z" fill="white"/>
<path d="M292.13 33.2299C292.01 44.5 285.09 55.7799 269.77 55.7799C254.45 55.7799 247.35 44.7599 247.35 33.2899C247.35 21.8199 254.7 10.3099 269.77 10.3099C284.84 10.3099 292.26 21.83 292.13 33.2299ZM255.44 33.42C255.63 40.58 259.49 48.2399 269.77 48.2399C280.05 48.2399 283.91 40.5199 284.03 33.3499C284.15 25.9999 280.04 17.7799 269.77 17.7799C259.5 17.7799 255.26 26.0599 255.44 33.4099V33.42Z" fill="white"/>
<path d="M341.02 33.2299C340.9 44.5 333.98 55.7799 318.66 55.7799C303.34 55.7799 296.24 44.7599 296.24 33.2899C296.24 21.8199 303.59 10.3099 318.66 10.3099C333.73 10.3099 341.15 21.83 341.02 33.2299ZM304.33 33.42C304.52 40.58 308.38 48.2399 318.66 48.2399C328.94 48.2399 332.8 40.5199 332.92 33.3499C333.04 25.9999 328.93 17.7799 318.66 17.7799C308.39 17.7799 304.15 26.0599 304.33 33.4099V33.42Z" fill="white"/>
<path d="M355.79 18.6599H341.96V11.1899H377.84V18.6599H364.01V54.7899H355.79V18.6599Z" fill="white"/>
<path d="M412.54 54.85V37.22H391.11V54.85H382.89V11.25H391.11V29.62H412.54V11.25H420.7V54.85H412.54Z" fill="white"/>
<path d="M181.07 78.6699C179.57 76.1799 175.47 73.8099 170.73 73.8099C164.63 73.8099 161.7 76.3599 161.7 79.5999C161.7 83.3999 166.18 84.4599 171.42 85.0799C180.51 86.1999 188.98 88.5699 188.98 98.9699C188.98 108.69 180.38 112.86 170.67 112.86C161.76 112.86 154.91 110.12 151.67 102.15L158.52 98.5999C160.45 103.4 165.49 105.51 170.79 105.51C176.09 105.51 180.82 103.7 180.82 98.9699C180.82 94.8599 176.52 93.1799 170.73 92.5599C161.82 91.4999 153.6 89.1299 153.6 79.3499C153.6 70.3799 162.45 66.7099 170.48 66.6399C177.27 66.6399 184.31 68.5699 187.61 75.2999L181.07 78.6599V78.6699Z" fill="white"/>
<path d="M206.61 75.6199H192.78V68.1399H228.66V75.6199H214.83V111.75H206.61V75.6199Z" fill="white"/>
<path d="M266.15 111.75H233.51V68.1499H266.15V76.1199H241.67V86.1499H265.28V93.8099H241.67V103.65H266.15V111.75Z" fill="white"/>
<path d="M293.06 98.91H280.73V111.74H272.51V68.14C279.36 68.14 286.21 68.08 293.06 68.08C314.36 68.08 314.42 98.91 293.06 98.91ZM280.73 91.37H293.06C303.59 91.37 303.52 75.92 293.06 75.92H280.73V91.37Z" fill="white"/>
<path d="M322.84 107.82C322.84 113.74 313.87 113.74 313.87 107.82C313.87 101.9 322.84 101.9 322.84 107.82Z" fill="white"/>
</svg>
