<svg width="63" height="63" viewBox="0 0 63 63" fill="none" xmlns="http://www.w3.org/2000/svg">
<g clip-path="url(#clip0_77_101)">
<path d="M18.9037 51.8479C16.3464 51.7316 14.9573 51.3061 14.0333 50.9457C12.809 50.469 11.9362 49.9016 11.0173 48.984C10.0984 48.0664 9.52974 47.1935 9.05561 45.9692C8.69522 45.0453 8.26965 43.6561 8.15336 41.0989C8.02556 38.3346 8 37.5052 8 30.5019C8 23.4986 8.02812 22.6705 8.15208 19.9037C8.26837 17.3464 8.6965 15.9598 9.05433 15.0333C9.53101 13.809 10.0997 12.9362 11.016 12.016C11.9336 11.0984 12.8065 10.5285 14.032 10.0543C14.956 9.69394 16.3452 9.26837 18.9024 9.15208C21.6679 9.02556 22.4986 9 29.4994 9C36.5027 9 37.3308 9.02812 40.0976 9.15208C42.6548 9.26837 44.0414 9.6965 44.968 10.0543C46.1923 10.5285 47.0651 11.0984 47.984 12.016C48.9028 12.9336 49.469 13.8077 49.9457 15.032C50.3061 15.956 50.7316 17.3452 50.8479 19.9024C50.9744 22.6692 51 23.4973 51 30.5006C51 37.5014 50.9744 38.3321 50.8479 41.0989C50.7316 43.6561 50.3035 45.0453 49.9457 45.9692C49.469 47.1935 48.9016 48.0664 47.984 48.984C47.0664 49.9016 46.1923 50.469 44.968 50.9457C44.044 51.3061 42.6548 51.7316 40.0976 51.8479C37.3333 51.9744 36.5027 52 29.4994 52C22.4986 52 21.6679 51.9757 18.9037 51.8479Z" fill="url(#paint0_radial_77_101)"/>
<path d="M18.9037 51.8479C16.3464 51.7316 14.9573 51.3061 14.0333 50.9457C12.809 50.469 11.9362 49.9016 11.0173 48.984C10.0984 48.0664 9.52974 47.1935 9.05561 45.9692C8.69522 45.0453 8.26965 43.6561 8.15336 41.0989C8.02556 38.3346 8 37.5052 8 30.5019C8 23.4986 8.02812 22.6705 8.15208 19.9037C8.26837 17.3464 8.6965 15.9598 9.05433 15.0333C9.53101 13.809 10.0997 12.9362 11.016 12.016C11.9336 11.0984 12.8065 10.5285 14.032 10.0543C14.956 9.69394 16.3452 9.26837 18.9024 9.15208C21.6679 9.02556 22.4986 9 29.4994 9C36.5027 9 37.3308 9.02812 40.0976 9.15208C42.6548 9.26837 44.0414 9.6965 44.968 10.0543C46.1923 10.5285 47.0651 11.0984 47.984 12.016C48.9028 12.9336 49.469 13.8077 49.9457 15.032C50.3061 15.956 50.7316 17.3452 50.8479 19.9024C50.9744 22.6692 51 23.4973 51 30.5006C51 37.5014 50.9744 38.3321 50.8479 41.0989C50.7316 43.6561 50.3035 45.0453 49.9457 45.9692C49.469 47.1935 48.9016 48.0664 47.984 48.984C47.0664 49.9016 46.1923 50.469 44.968 50.9457C44.044 51.3061 42.6548 51.7316 40.0976 51.8479C37.3333 51.9744 36.5027 52 29.4994 52C22.4986 52 21.6679 51.9757 18.9037 51.8479Z" fill="url(#paint1_radial_77_101)"/>
<path d="M24.2207 30.5916C24.2207 27.6509 26.604 25.2663 29.5447 25.2663C32.4855 25.2663 34.8701 27.6509 34.8701 30.5916C34.8701 33.5324 32.4855 35.9169 29.5447 35.9169C26.604 35.9169 24.2207 33.5324 24.2207 30.5916ZM21.3419 30.5916C21.3419 35.122 25.0143 38.7944 29.5447 38.7944C34.0752 38.7944 37.7476 35.122 37.7476 30.5916C37.7476 26.0612 34.0752 22.3888 29.5447 22.3888C25.0143 22.3888 21.3421 26.0609 21.3421 30.5916M36.1555 22.0636C36.1553 22.4427 36.2676 22.8134 36.4781 23.1287C36.6886 23.444 36.9879 23.6899 37.3381 23.8351C37.6883 23.9803 38.0738 24.0184 38.4456 23.9446C38.8175 23.8708 39.1592 23.6884 39.4274 23.4204C39.6956 23.1524 39.8783 22.8109 39.9524 22.4391C40.0265 22.0672 39.9887 21.6818 39.8437 21.3315C39.6988 20.9811 39.4532 20.6816 39.1381 20.4709C38.8229 20.2601 38.4523 20.1475 38.0732 20.1474H38.0724C37.5642 20.1476 37.0769 20.3495 36.7175 20.7088C36.358 21.0681 36.1559 21.5554 36.1555 22.0636ZM23.091 43.5948C21.5335 43.5238 20.687 43.2644 20.1244 43.0452C19.3786 42.7549 18.8464 42.409 18.2869 41.8503C17.7274 41.2916 17.3811 40.76 17.092 40.0141C16.8727 39.4518 16.6133 38.605 16.5425 37.0476C16.4651 35.3637 16.4496 34.8579 16.4496 30.5919C16.4496 26.3259 16.4663 25.8215 16.5425 24.1362C16.6134 22.5787 16.8748 21.7336 17.092 21.1696C17.3824 20.4238 17.7282 19.8917 18.2869 19.3322C18.8457 18.7727 19.3773 18.4263 20.1244 18.1373C20.6867 17.918 21.5335 17.6585 23.091 17.5877C24.7748 17.5103 25.2807 17.4948 29.5447 17.4948C33.8088 17.4948 34.3152 17.5113 36.0004 17.588C37.5579 17.6589 38.403 17.9203 38.967 18.1375C39.7128 18.4266 40.245 18.7737 40.8045 19.3324C41.364 19.8911 41.709 20.4241 41.9994 21.1699C42.2187 21.7322 42.4781 22.579 42.5489 24.1364C42.6263 25.8217 42.6418 26.3261 42.6418 30.5921C42.6418 34.8581 42.6263 35.3626 42.5489 37.0478C42.478 38.6053 42.2173 39.4518 41.9994 40.0144C41.709 40.7602 41.3632 41.2924 40.8045 41.8506C40.2457 42.4088 39.7128 42.7551 38.967 43.0455C38.4047 43.2648 37.5579 43.5242 36.0004 43.595C34.3166 43.6725 33.8108 43.6879 29.5447 43.6879C25.2787 43.6879 24.7743 43.6725 23.091 43.595M22.9587 14.7137C21.2581 14.7911 20.096 15.0608 19.0812 15.4557C18.0308 15.8635 17.1405 16.4106 16.2514 17.2983C15.3623 18.1859 14.8166 19.0764 14.4088 20.1281C14.0139 21.1436 13.7443 22.305 13.6668 24.0056C13.5881 25.7089 13.5701 26.2534 13.5701 30.5916C13.5701 34.9298 13.5881 35.4744 13.6668 37.1777C13.7443 38.8784 14.0139 40.0397 14.4088 41.0552C14.8166 42.1055 15.3624 42.9977 16.2514 43.885C17.1403 44.7723 18.0296 45.3186 19.0812 45.7276C20.098 46.1225 21.2581 46.3921 22.9587 46.4696C24.6629 46.547 25.2065 46.5663 29.5447 46.5663C33.883 46.5663 34.4275 46.5483 36.1308 46.4696C37.8315 46.3921 38.9928 46.1225 40.0083 45.7276C41.0587 45.3186 41.949 44.7727 42.8381 43.885C43.7272 42.9973 44.2717 42.1055 44.6807 41.0552C45.0756 40.0397 45.3465 38.8783 45.4227 37.1777C45.5001 35.4731 45.5181 34.9298 45.5181 30.5916C45.5181 26.2534 45.5001 25.7089 45.4227 24.0056C45.3452 22.3049 45.0756 21.1429 44.6807 20.1281C44.2717 19.0777 43.7258 18.1873 42.8381 17.2983C41.9504 16.4092 41.0587 15.8635 40.0096 15.4557C38.9928 15.0608 37.8314 14.7899 36.1321 14.7137C34.4285 14.6359 33.8842 14.6169 29.5467 14.6169C25.2091 14.6169 24.6635 14.635 22.9593 14.7137" fill="white"/>
</g>
<defs>
<radialGradient id="paint0_radial_77_101" cx="0" cy="0" r="1" gradientUnits="userSpaceOnUse" gradientTransform="translate(10.7829 51.058) scale(54.594)">
<stop offset="0.09" stop-color="#FA8F21"/>
<stop offset="0.78" stop-color="#D82D7E"/>
</radialGradient>
<radialGradient id="paint1_radial_77_101" cx="0" cy="0" r="1" gradientUnits="userSpaceOnUse" gradientTransform="translate(37.7846 49.6773) scale(48.0433)">
<stop offset="0.64" stop-color="#8C3AAA" stop-opacity="0"/>
<stop offset="1" stop-color="#8C3AAA"/>
</radialGradient>
<clipPath id="clip0_77_101">
<rect width="43" height="43" fill="white" transform="translate(8 9)"/>
</clipPath>
</defs>
</svg>
