<svg width="63" height="63" viewBox="0 0 63 63" fill="none" xmlns="http://www.w3.org/2000/svg">
<path d="M22.66 11C16.23 11 11 16.24 11 22.67V39.33C11 45.76 16.24 51 22.67 51H39.33C45.76 51 51 45.76 51 39.33V22.66C51 16.23 45.76 11 39.33 11H22.66ZM43 17.4C43.88 17.4 44.6 18.12 44.6 19C44.6 19.88 43.88 20.6 43 20.6C42.12 20.6 41.4 19.88 41.4 19C41.4 18.12 42.12 17.4 43 17.4ZM31 20.6C36.74 20.6 41.4 25.26 41.4 31C41.4 36.74 36.74 41.4 31 41.4C25.26 41.4 20.6 36.74 20.6 31C20.6 25.26 25.26 20.6 31 20.6ZM31 23.8C27.02 23.8 23.8 27.02 23.8 31C23.8 34.98 27.02 38.2 31 38.2C34.98 38.2 38.2 34.98 38.2 31C38.2 27.02 34.98 23.8 31 23.8Z" fill="white"/>
</svg>
