<svg width="63" height="63" viewBox="0 0 63 63" fill="none" xmlns="http://www.w3.org/2000/svg">
<path d="M9 53L12.1724 41.5C10.1104 37.931 9 33.9655 9 29.8413C9 17.3104 19.3104 7 31.9207 7C44.531 7 55 17.3104 55 29.8413C55 42.3723 44.531 53 31.9207 53C27.9551 53 24.1483 51.731 20.7379 49.8276L9 53Z" fill="#EDEDED"/>
<path d="M21.3724 45.7032L22.0862 46.0998C25.0207 47.9239 28.4311 49.0343 32.0001 49.0343C42.3897 49.0343 51.0345 40.3894 51.0345 29.8411C51.0345 19.2929 42.3897 10.9653 31.9207 10.9653C21.4518 10.9653 12.9656 19.3722 12.9656 29.8411C12.9656 33.4894 13.9966 37.0584 15.9001 40.0722L16.376 40.786L14.5519 47.4481L21.3724 45.7032Z" fill="#55CD6C"/>
<path d="M25.8138 19.2139L24.3069 19.1345C23.831 19.1345 23.3552 19.2932 23.0379 19.6104C22.3241 20.2449 21.1345 21.4345 20.8173 23.0208C20.2621 25.4001 21.1345 28.2553 23.1966 31.1104C25.2587 33.9656 29.2242 38.5656 36.2035 40.5483C38.4241 41.1828 40.169 40.7862 41.5966 39.9139C42.707 39.2 43.4207 38.0898 43.6587 36.9L43.8966 35.7897C43.9759 35.4724 43.8173 35.0759 43.5 34.9173L38.5035 32.6173C38.1862 32.4586 37.7897 32.538 37.5518 32.8552L35.569 35.3931C35.4103 35.5518 35.1724 35.631 34.9345 35.5518C33.5862 35.0759 29.0656 33.1724 26.6069 28.4139C26.5276 28.1759 26.5276 27.938 26.6862 27.7794L28.5897 25.638C28.7483 25.4001 28.8276 25.0829 28.7483 24.8449L26.4483 19.6898C26.3689 19.4518 26.131 19.2139 25.8138 19.2139Z" fill="#FEFEFE"/>
</svg>
