<svg width="63" height="63" viewBox="0 0 63 63" fill="none" xmlns="http://www.w3.org/2000/svg">
<path d="M31 11C19.96 11 11 19.96 11 31C11 34.75 12.05 38.25 13.85 41.25L11.18 51L21.14 48.39C24.05 50.05 27.41 51 31 51C42.04 51 51 42.04 51 31C51 19.96 42.04 11 31 11ZM24.15 21.67C24.47 21.67 24.81 21.67 25.1 21.68C25.46 21.68 25.84 21.71 26.22 22.54C26.66 23.52 27.62 25.97 27.75 26.22C27.88 26.47 27.96 26.76 27.79 27.09C27.63 27.42 27.54 27.63 27.3 27.92C27.05 28.21 26.78 28.56 26.55 28.78C26.3 29.03 26.05 29.3 26.33 29.8C26.62 30.3 27.61 31.92 29.08 33.23C30.97 34.92 32.57 35.44 33.06 35.69C33.56 35.94 33.84 35.9 34.13 35.57C34.43 35.24 35.37 34.13 35.7 33.63C36.02 33.13 36.36 33.22 36.81 33.38C37.27 33.54 39.7 34.74 40.2 34.99C40.7 35.24 41.02 35.36 41.15 35.56C41.28 35.77 41.28 36.76 40.87 37.92C40.46 39.08 38.44 40.19 37.53 40.27C36.61 40.36 35.76 40.68 31.58 39.04C26.54 37.05 23.36 31.89 23.11 31.56C22.86 31.24 21.09 28.88 21.09 26.44C21.09 24 22.37 22.8 22.82 22.31C23.28 21.81 23.81 21.69 24.14 21.69L24.15 21.67Z" fill="white"/>
</svg>
